HIERARCHY
ROOT pelvis
{
  OFFSET 0 100 0
  CHANNELS 6 Xposition Yposition Zposition Zrotation Xrotation Yrotation
  JOINT pelvis_right_femur
  {
    OFFSET -10.78128 -3.44521 -0.5502486
    CHANNELS 3 Zrotation Xrotation Yrotation
    JOINT right_femur_tibia
    {
      OFFSET -0.8047443 -44.0398 -0.1307829
      CHANNELS 3 Zrotation Xrotation Yrotation
      JOINT right_tibia_foot
      {
        OFFSET 3.006224 -47.83518 -5
        CHANNELS 3 Zrotation Xrotation Yrotation
        End Site
        {
          OFFSET 0 -5 15
        }
      }
    }
  }
  JOINT pelvis_left_femur
  {
    OFFSET 10.78128 -3.44521 -0.5502486
    CHANNELS 3 Zrotation Xrotation Yrotation
    JOINT left_femur_tibia
    {
      OFFSET 0.8047443 -44.0398 -0.1307829
      CHANNELS 3 Zrotation Xrotation Yrotation
      JOINT left_tibia_foot
      {
        OFFSET -4.370144 -48.10324 -4.275266
        CHANNELS 3 Zrotation Xrotation Yrotation
        End Site
        {
          OFFSET 0 -5 15
        }
      }
    }
  }
  JOINT pelvis_spine1
  {
    OFFSET 0 6.468898 -3.129235
    CHANNELS 3 Zrotation Xrotation Yrotation
    JOINT spine1
    {
      OFFSET 0 23.15396 4.99043
      CHANNELS 3 Zrotation Xrotation Yrotation
      JOINT spine2
      {
        OFFSET 0 20.79997 -5.064912
        CHANNELS 3 Zrotation Xrotation Yrotation
        JOINT neck
        {
          OFFSET 0 14.38658 9.616178
          CHANNELS 3 Zrotation Xrotation Yrotation
          End Site
          {
            OFFSET 0 20 0
          }
        }
      }
      JOINT right_manubrium
      {
        OFFSET -5.722621 16.35077 3.967754
        CHANNELS 3 Zrotation Xrotation Yrotation
        JOINT right_clavicle
        {
          OFFSET -13.16364 1.694482 -4.693211
          CHANNELS 3 Zrotation Xrotation Yrotation
          JOINT right_humerus
          {
            OFFSET -28.5034 -0.3100689 -2.792744
            CHANNELS 3 Zrotation Xrotation Yrotation
            JOINT right_radius
            {
              OFFSET -25.15693 0.02248979 -1.271978
              CHANNELS 3 Zrotation Xrotation Yrotation
              End Site
              {
                OFFSET -15 0 0
              }
            }
          }
        }
      }
      JOINT left_manubrium
      {
        OFFSET 5.722621 16.35077 3.967754
        CHANNELS 3 Zrotation Xrotation Yrotation
        JOINT left_clavicle
        {
          OFFSET 13.16364 1.694482 -4.693211
          CHANNELS 3 Zrotation Xrotation Yrotation
          JOINT left_humerus
          {
            OFFSET 29.39168 -1.063119 -2.237045
            CHANNELS 3 Zrotation Xrotation Yrotation
            JOINT left_radius
            {
              OFFSET 24.59957 -0.9528479 0.9047498
              CHANNELS 3 Zrotation Xrotation Yrotation
              End Site
              {
                OFFSET 15 -0 -0
              }
            }
          }
        }
      }
    }
  }
}
MOTION
Frames: 21
Frame Time: 0.0416666666667
28.84331 102.6778 251.3583 -0.08015587 -0.8876148 2.340413 4.726928 6.269144 8.807222 -0 17.87117 -0 0.1391331 -15.60277 -6.889612 4.917653 -32.82899 1.056812 -0 29.03089 -0 -13.48422 -9.704001 20.96745 1.609405 -3.882498 9.178011 -1.749469 11.00249 -2.116295 1.454735 19.24965 4.96545 1.412485 -17.77206 6.117197 2.257228 -22.85019 13.75257 80.08769 19.48728 -8.474253 -0 0 23.55769 -24.02416 8.82067 13.37019 4.667248 -17.42366 -3.798942 -91.75731 21.71012 23.26276 0 0 -14.73788 -3.376813 4.89015 16.38665
30.08049 101.5799 257.7636 -0.08883573 -0.9367646 1.929015 4.408477 8.306933 8.267154 -0 20.8382 -0 0.9575387 -15.75146 -6.318681 4.112545 -35.0499 0.2837825 -0 25.43535 -0 -13.24957 -9.837931 20.47639 1.713068 -3.637676 9.233419 -2.016714 10.64111 -1.99534 1.490946 18.99783 4.88049 1.162337 -18.12003 6.260291 1.828265 -23.50698 13.4934 79.34974 18.80746 -7.094904 -0 0 25.50789 -24.51178 8.60229 13.85786 4.306411 -16.6417 -3.78452 -92.46629 22.02922 24.17538 0 0 -12.90338 -4.080803 4.50628 17.50426
31.39194 100.739 264.6286 -0.09411384 -0.9627012 1.700201 3.682241 10.02379 7.701376 -0 25.12398 -0 1.966697 -14.42458 -5.72146 2.003815 -33.37218 -1.494885 -0 26.46232 -0 -13.07343 -9.684269 20.01748 1.467074 -3.884512 9.278158 -2.050832 10.41526 -2.058661 1.726122 18.89501 4.766036 1.068493 -18.36061 6.485947 1.522438 -23.76819 12.98082 79.1185 18.26545 -6.48919 -0 0 26.61697 -24.86395 8.456682 14.18556 4.103941 -15.72708 -3.795581 -92.93368 22.38781 24.8328 0 0 -11.3897 -4.639012 4.234833 18.34006
32.81773 100.2509 272.2164 -0.1029398 -1.009698 1.302678 2.808516 10.946 7.098497 -0 31.05968 -0 2.914965 -11.69278 -5.284284 0.4523809 -33.07094 -3.073687 -0 27.50181 -0 -12.94642 -9.45933 19.51131 1.169613 -4.905747 9.342907 -2.030536 10.37274 -2.012725 2.055651 19.03517 4.635547 1.075084 -18.41461 6.733578 1.412019 -23.40694 12.24162 79.60937 17.96408 -6.799415 -0 0 26.69073 -25.00735 8.416473 14.29704 3.94509 -14.78627 -3.474099 -93.13586 22.7303 25.14704 0 0 -10.26976 -4.946719 4.100234 18.85984
34.24683 100.5574 279.5813 -0.09145477 -0.9368245 1.877436 2.050867 9.7309 6.480385 -0 38.94057 -0 3.319937 -8.979364 -5.440116 -1.28107 -30.14517 -4.397103 -0 29.98222 -0 -12.60692 -10.22208 19.1207 0.6890705 -6.061117 8.703502 -1.978601 10.46806 -2.380204 2.342023 19.46686 4.538024 1.077855 -18.30163 6.994291 1.65752 -22.85503 11.44081 80.61131 17.96116 -7.684894 -0 0 25.6363 -24.87193 8.511774 14.11678 3.750188 -14.2334 -3.321461 -92.67622 23.20593 24.68666 0 0 -9.638351 -4.990157 4.124689 19.00254
35.5729 101.1206 286.6138 -0.06210745 -0.7370864 3.485403 2.7219 5.419575 6.000306 -0 47.91219 -0 2.37363 -7.797642 -5.858857 -2.914909 -26.9003 -5.255849 -0 31.06981 -0 -11.9556 -12.1132 18.74971 0.2941653 -7.270663 7.76831 -2.049588 10.62931 -2.745271 2.621049 20.0143 4.418389 1.074207 -18.12097 7.228393 2.056107 -21.90607 10.8818 81.77617 18.17376 -9.029408 -0 0 23.84646 -24.54066 8.702698 13.75559 3.553545 -14.44206 -3.350066 -91.45484 23.85568 23.43126 0 0 -9.433122 -4.770246 4.312477 18.86017
36.76236 102.35 293.176 -0.04668705 -0.6105414 4.501102 2.406067 -1.82959 5.295253 -0 55.14814 -0 1.308957 -9.087414 -7.406626 -3.744922 -22.76815 -5.770779 -0 30.87991 -0 -11.39564 -13.91189 18.2351 0.1794437 -7.98545 6.777544 -2.068856 10.78028 -3.011183 2.546493 20.53948 4.5421 0.8760536 -17.93888 7.502438 2.91981 -21.02402 10.79246 82.96687 18.5464 -10.45269 -0 0 21.75439 -24.0497 8.959049 13.31314 3.06751 -15.09985 -3.697811 -89.78984 24.58909 21.33633 0 0 -9.622996 -4.39675 4.645468 18.51503
37.9978 103.8074 299.069 -0.03422859 -0.4926813 5.446599 2.205952 -9.273458 5.016032 -0 57.97833 -0 0.7219149 -9.691797 -8.251339 -4.225136 -18.03796 -6.163907 -0 29.18089 -0 -11.06559 -15.28039 17.40768 -0.06771243 -8.332158 5.488689 -1.936108 10.75627 -3.638743 2.509965 21.14256 4.697946 0.7148336 -17.56468 7.837953 3.364064 -20.28435 10.63234 84.31731 19.00719 -11.83434 -0 0 19.96322 -23.52861 9.227393 13.00261 2.827673 -15.94277 -4.188642 -87.97323 25.25509 18.47918 0 0 -10.56972 -3.86615 5.115857 17.89861
39.07028 104.98 304.5229 -0.02183763 -0.3565256 6.54099 1.744106 -14.70854 4.258625 -0 56.06907 -0 1.164099 -8.500907 -9.115284 -4.46007 -12.6888 -6.534076 -0 26.31712 -0 -10.86589 -16.4115 16.27403 -0.2954809 -8.323697 4.201847 -1.569573 10.38716 -4.611958 2.391527 21.74222 4.905587 0.5375223 -16.99335 8.148834 3.347152 -19.84252 10.41734 85.49234 19.44796 -12.98239 -0 0 18.82432 -23.16211 9.429343 12.97381 2.988798 -16.92067 -4.845355 -86.0489 25.79805 14.99701 0 0 -12.21748 -3.22244 5.648156 17.01042
40.2394 105.8819 310.2105 -0.008200253 -0.1666703 8.073036 1.584535 -20.58332 4.183785 -0 50.21306 -0 0.8974318 -7.966844 -9.627301 -4.540758 -8.099238 -7.237382 -0 23.49031 -0 -10.73316 -17.38787 14.96793 -0.7316186 -8.111616 2.841258 -0.9042065 10.36851 -6.02053 2.46848 22.09171 4.961511 0.4721901 -16.54849 8.397954 3.075201 -18.73118 9.759889 86.77362 19.74601 -14.92699 -0 0 16.99227 -22.58893 9.566575 12.5311 3.280241 -17.70075 -5.449118 -84.25695 26.16315 11.50439 0 0 -14.26026 -2.483838 6.234857 15.83893
41.2075 105.7055 315.7072 0.003122554 0.09820045 10.21636 0.7677644 -25.02105 3.874367 -0 41.67884 -0 0.8189632 -7.199631 -10.60326 -4.036811 -2.926225 -7.770805 -0 20.10778 -0 -10.49155 -18.82538 13.24817 -1.261193 -8.137108 1.731991 -0.2054272 9.665012 -7.305679 2.765601 22.17575 4.971207 0.5036871 -16.47574 8.778298 2.458983 -17.65482 9.010917 87.88942 19.9723 -16.72522 -0 0 15.3641 -22.17635 9.630041 12.22662 3.915783 -18.44814 -5.893661 -82.47677 26.35953 7.880626 0 0 -16.81688 -1.643784 6.875332 14.44325
42.15927 104.8726 321.1742 0.005559103 0.3170479 11.99266 -0.2530892 -28.66633 3.450028 -0 31.83215 -0 0.5837116 -6.736106 -11.88051 -3.673284 1.378605 -8.079068 -0 18.04577 -0 -10.22019 -20.42878 11.86761 -1.580192 -7.995695 1.002903 0.3875738 9.038281 -8.031005 3.062947 22.39211 4.834481 0.5605869 -16.37278 8.954902 1.975453 -16.89578 8.421999 88.70747 20.20776 -18.21349 -0 0 13.52543 -21.7517 9.669514 11.82399 4.472222 -19.46966 -5.997796 -80.65136 26.4176 4.048341 0 0 -19.59375 -0.7682967 7.554863 12.94278
43.0809 103.5895 326.8801 0.004800039 0.418999 12.8249 -0.3815114 -31.49141 2.548387 -0 23.9992 -0 -0.2110661 -7.327316 -13.31373 -3.309297 5.20552 -8.220335 -0 17.39596 -0 -10.00185 -21.92396 10.92402 -1.766746 -7.722545 0.6322955 0.8841041 8.611855 -8.317899 3.311614 22.41281 4.607576 0.5997454 -16.51476 8.956485 1.699442 -15.86216 8.003717 89.78989 20.36861 -19.842 -0 0 11.10565 -21.09359 9.689648 11.15203 5.054163 -20.48506 -5.784813 -79.03519 26.32679 0.7246233 0 0 -22.22952 0.1535164 8.234835 11.42948
43.68547 102.3839 332.7503 0.003907351 0.477779 13.30819 -0.7482944 -34.77353 2.062036 -0 19.4615 -0 -1.229763 -8.694845 -13.98489 -2.796689 8.45418 -8.19536 -0 18.026 -0 -9.92974 -22.78907 10.47264 -1.984788 -7.353276 0.5965193 1.296191 8.260824 -8.178514 3.475095 22.45124 4.310779 0.6111607 -16.79516 8.782528 1.870754 -15.1449 7.956806 90.82223 20.58463 -21.0608 -0 0 8.462415 -20.34855 9.764374 10.39902 5.500377 -21.44032 -5.406273 -77.78437 26.1318 -1.796124 0 0 -24.32765 1.054418 8.87885 10.01833
44.36559 101.1578 339.1428 0.00379501 0.4945791 13.44958 0.1145023 -34.88164 2.168967 -0 19.02885 -0 -2.112586 -9.566973 -14.60619 -2.412355 11.10925 -8.322176 -0 20.34227 -0 -10.01576 -22.57963 10.50578 -1.984954 -7.490181 0.6095187 1.567553 8.121404 -7.813939 3.521124 22.5609 4.017439 0.5912254 -16.99188 8.483542 2.03796 -14.51466 8.037022 91.84975 20.81901 -21.98826 -0 0 5.816806 -19.54507 9.879991 9.67577 5.863566 -22.01267 -4.853538 -77.32271 26.00316 -3.186081 0 0 -25.62518 1.798974 9.445276 8.876001
44.98986 100.5251 346.0316 0.001972664 0.5604918 13.99103 2.090284 -33.76833 3.147055 -0 20.71064 -0 -2.708232 -9.403304 -14.54299 -1.874532 12.69343 -8.51999 -0 24.53046 -0 -10.26091 -20.86307 11.05808 -1.819668 -7.866398 0.61264 1.661138 8.386062 -7.430379 3.51791 22.72179 3.645795 0.5691518 -17.12919 8.016732 2.251524 -13.64493 8.111965 93.00215 20.96128 -22.78207 -0 0 3.501894 -18.79521 10.00393 9.132334 5.971894 -22.23092 -4.192069 -77.68197 26.03151 -3.431537 0 0 -25.87736 2.303663 9.926436 8.128862
45.77701 100.265 353.008 0.002035465 0.5641667 14.02476 3.527488 -31.55345 3.975829 -0 22.72211 -0 -3.085867 -9.021471 -14.26592 -1.771727 12.71765 -8.558034 -0 31.28119 -0 -10.42824 -17.86057 12.20456 -1.474328 -8.918383 0.6667173 1.728324 8.251189 -7.237972 3.657756 22.70778 3.358294 0.6170174 -17.58312 7.784184 2.241576 -13.11561 8.17557 93.74616 21.13091 -23.15617 -0 0 1.85317 -18.19885 10.09178 8.909959 5.789182 -21.72025 -3.802846 -78.82928 26.21989 -2.329586 0 0 -24.78863 2.510646 10.33047 7.849653
46.57054 100.9214 360.1874 0.005580625 0.4415234 13.02667 4.406154 -28.67028 4.810115 -0 24.45287 -0 -3.723677 -9.499196 -14.00805 -1.283583 9.404653 -8.637567 -0 40.08711 -0 -9.861687 -15.18668 14.21048 -1.035496 -9.916085 1.247032 1.937771 8.684431 -6.734186 3.549558 23.25749 3.254426 0.5667374 -17.82055 7.577127 2.474118 -13.09041 8.262413 93.83019 21.38403 -22.93473 -0 0 0.9004168 -17.87847 10.08772 9.082244 5.359552 -20.94109 -3.284715 -80.57345 26.43878 -0.1768085 0 0 -22.69926 2.454805 10.68404 7.928277
47.29998 101.8445 367.2408 0.006867167 0.323613 12.06546 5.337132 -24.88292 5.73081 -0 25.37736 -0 -4.480018 -10.82532 -13.60225 -1.495574 3.699567 -8.450767 -0 49.45145 -0 -9.361276 -12.16596 16.27977 -0.7609552 -10.83801 2.039455 2.076875 9.126709 -6.207192 3.52629 23.89988 3.062964 0.5639471 -18.08145 7.328356 2.732472 -13.62909 8.533983 93.26614 21.78128 -21.98677 -0 0 0.5797901 -17.64377 10.09493 9.324369 4.728321 -20.10596 -2.885755 -82.61533 26.60102 2.599294 0 0 -19.88498 2.15089 11.00088 8.257275
47.85566 102.9477 373.4829 0.006876387 0.2920584 11.80796 5.753627 -20.38994 5.931309 -0 24.67263 -0 -5.117319 -12.25494 -13.12045 -2.001119 -2.038036 -7.638014 -0 57.03811 -0 -9.079174 -9.485306 18.317 -0.5494493 -10.81824 2.976227 2.086802 9.282303 -5.572832 3.657991 24.44324 2.685514 0.6347391 -18.34114 6.96607 2.843149 -14.96788 9.371813 91.76974 22.38381 -20.02578 -0 0 1.086532 -17.56834 10.09176 9.681583 4.078935 -19.63877 -2.84175 -84.62262 26.63687 5.428313 0 0 -16.7395 1.690271 11.28938 8.729572
48.5625 104.318 379.7332 0.005880644 0.1900526 10.97415 5.957074 -15.03272 5.686695 -0 22.41813 -0 -5.5577 -13.37706 -12.32336 -1.884535 -9.337796 -7.418006 -0 60.92261 -0 -8.204379 -7.892556 19.69096 -0.2729494 -10.85092 3.954581 1.938112 9.349128 -4.764532 3.690712 24.84695 2.427212 0.6659953 -18.57612 6.652289 2.700306 -16.26037 10.10633 90.06483 22.79882 -17.7918 -0 0 2.169669 -18.17601 9.856653 10.37867 3.69342 -18.96932 -2.63075 -86.81614 26.46149 8.756226 0 0 -13.39676 1.152104 11.53341 9.272179
